<?xml version="1.0" encoding="utf-8"?>
<!-- Generator: Adobe Illustrator 19.2.1, SVG Export Plug-In . SVG Version: 6.00 Build 0)  -->
<svg version="1.1" id="Layer_1" xmlns="http://www.w3.org/2000/svg" xmlns:xlink="http://www.w3.org/1999/xlink" x="0px" y="0px"
	 viewBox="0 0 527 262.9" style="enable-background:new 0 0 527 262.9;" xml:space="preserve">
<style type="text/css">
	.st0{fill:#62A77B;}
	.st1{fill:#3B5666;}
	.st2{fill:#D3E49C;}
	.st3{fill:#CCCCCC;}
</style>
<g>
	<path class="st0" d="M370.3,205.2l25.8,32.5l7.7-6.1l-28.2-35.5C374.3,199.2,372.5,202.3,370.3,205.2z"/>
	<path class="st0" d="M375.6,150.8c-2.5,0.9-5.1,1.4-7.9,1.4c-1.7,0-3.3-0.2-4.9-0.5v23.4c0,3.6-1.1,14.3-6.2,20.5
		c-0.3,0.4-8,10-8,26.9v16.8h9.8v-16.8c0-13.2,5.6-20.4,5.8-20.7c8.4-10.2,8.4-26.1,8.4-26.7V163l23.5,29.6l7.7-6.1L375.6,150.8z"/>
	<path class="st0" d="M367.6,144.8c-8.7,0-15.8-7.1-15.8-15.8s7.1-15.8,15.8-15.8c8.7,0,15.8,7.1,15.8,15.8S376.3,144.8,367.6,144.8
		z M367.6,123.1c-3.3,0-5.9,2.7-5.9,5.9c0,3.2,2.7,5.9,5.9,5.9c3.3,0,5.9-2.7,5.9-5.9C373.5,125.8,370.9,123.1,367.6,123.1z"/>
	<path class="st1" d="M279.7,205.2l25.8,32.5l7.7-6.1L285,196C283.7,199.2,282,202.3,279.7,205.2z"/>
	<path class="st1" d="M285,150.8c-2.5,0.9-5.1,1.4-7.9,1.4c-1.7,0-3.3-0.2-4.9-0.5v23.4c0,3.6-1.1,14.3-6.2,20.5
		c-0.3,0.4-8,10-8,26.9v16.8h9.8v-16.8c0-13.2,5.6-20.4,5.8-20.7c8.4-10.2,8.4-26.1,8.4-26.7V163l23.5,29.6l7.7-6.1L285,150.8z"/>
	<path class="st1" d="M277.1,144.8c-8.7,0-15.8-7.1-15.8-15.8s7.1-15.8,15.8-15.8c8.7,0,15.8,7.1,15.8,15.8S285.8,144.8,277.1,144.8
		z M277.1,123.1c-3.3,0-5.9,2.7-5.9,5.9c0,3.2,2.7,5.9,5.9,5.9s5.9-2.7,5.9-5.9C283,125.8,280.4,123.1,277.1,123.1z"/>
	<rect x="410.2" y="208.4" class="st2" width="116.8" height="9.8"/>
	<rect x="124.1" y="253" class="st2" width="402.9" height="9.8"/>
	<polygon class="st3" points="430.4,121.6 322.7,13.9 215.1,121.6 208.1,114.6 322.7,0 437.4,114.6 	"/>
	<path class="st2" d="M124.8,262.9c-41.3,0-74.8-33.6-74.8-74.8s33.6-74.8,74.8-74.8v9.8c-35.8,0-65,29.2-65,65s29.2,65,65,65V262.9
		z"/>
	<polygon class="st3" points="17.5,119.8 14,116.3 89.9,40.5 132.6,83.3 129.1,86.7 89.9,47.5 	"/>
	<polygon class="st3" points="518.5,119.8 446.1,47.5 420,73.6 416.5,70.1 446.1,40.5 522,116.3 	"/>
	<rect x="124.1" y="208.4" class="st2" width="118" height="9.8"/>
	<path class="st2" d="M178.5,50.6c-14,0-25.3-11.4-25.3-25.3S164.6,0,178.5,0c14,0,25.3,11.3,25.3,25.3S192.5,50.6,178.5,50.6z
		 M178.5,9.9c-8.5,0-15.5,6.9-15.5,15.5c0,8.5,6.9,15.5,15.5,15.5c8.5,0,15.5-6.9,15.5-15.5S187,9.9,178.5,9.9z"/>
	<path class="st3" d="M374.2,65.4c-0.2-0.2-23.5-23.1-52.2-23.8l0.2-9.8c32.7,0.8,57.9,25.6,58.9,26.7L374.2,65.4z"/>
	<path class="st3" d="M472.1,73.2c-0.1-0.1-11.8-11.6-26.1-11.9l0.1-4.9c16.3,0.4,28.9,12.8,29.5,13.3L472.1,73.2z"/>
	<path class="st3" d="M63.8,73.6l-3.5-3.5c0.5-0.5,13.1-12.9,29.5-13.3l0.1,4.9C75.5,62.1,63.9,73.5,63.8,73.6z"/>
	<rect x="400" y="113.2" class="st3" width="92.5" height="9.8"/>
	
		<rect x="25" y="90.3" transform="matrix(3.450962e-03 -1 1 3.450962e-03 -90.4046 144.8209)" class="st3" width="4.9" height="54.9"/>
	<path class="st2" d="M124.1,218.3c-29,0-52.5-23.6-52.5-52.5c0-28.9,23.6-52.5,52.5-52.5l34-0.1v9.8l-34,0.1
		c-23.6,0-42.7,19.2-42.7,42.7s19.2,42.7,42.7,42.7L124.1,218.3z"/>
	<rect x="178.5" y="113.2" class="st3" width="65.7" height="9.8"/>
	<g>
		<polygon class="st1" points="273.4,145.1 273.2,145 273.1,145.2 		"/>
		<polygon class="st1" points="265,155.4 240.4,186.3 248.1,192.5 265,171.2 		"/>
	</g>
	<g>
		<polygon class="st0" points="355.5,155.4 330.9,186.3 338.6,192.5 355.5,171.2 		"/>
		<polygon class="st0" points="363.9,145.1 363.8,145 363.6,145.2 		"/>
	</g>
</g>
</svg>
