<?xml version="1.0" encoding="utf-8"?>
<!-- Generator: Adobe Illustrator 19.2.1, SVG Export Plug-In . SVG Version: 6.00 Build 0)  -->
<svg version="1.1" id="Layer_1" xmlns="http://www.w3.org/2000/svg" xmlns:xlink="http://www.w3.org/1999/xlink" x="0px" y="0px"
	 viewBox="0 0 426.3 102" style="enable-background:new 0 0 426.3 102;" xml:space="preserve">
<style type="text/css">
	.st0{fill:#3A5566;}
</style>
<g>
	<g>
		<g>
			<g>
				<g>
					<path class="st0" d="M155.5,33.4c-1.6,0-3-1.3-3-3c0-1.6,1.4-2.9,3-2.9h29.7c1.6,0,3,1.3,3,2.9c0,1.7-1.4,3-3,3h-11.6v37.9
						c0,1.8-1.4,3.2-3.2,3.2c-1.8,0-3.1-1.4-3.1-3.2V33.4H155.5z"/>
					<path class="st0" d="M221.2,56.7h-6v14.6c0,1.8-1.4,3.2-3.2,3.2c-1.8,0-3.1-1.4-3.1-3.2V30.2c0-1.5,1.2-2.7,2.6-2.7h15.3
						c9.8,0,13.8,7.3,13.8,14.6c0,6.9-3.5,13.6-12.2,14.4l9.1,13c1,1.5,0.7,3.4-0.7,4.4c-1.4,1.1-3.3,0.7-4.4-0.8L221.2,56.7z
						 M215.2,33.4v17.4h11.1c5.7,0,7.8-4.3,7.8-8.7c0-4.3-2.1-8.7-7.5-8.7H215.2z"/>
					<path class="st0" d="M297.5,70.1c0.7,1.7-0.1,3.5-1.8,4.1c-1.7,0.6-3.5-0.2-4.1-1.8l-3.9-10.2h-19.8l-3.9,10.2
						c-0.6,1.6-2.4,2.4-4.1,1.8c-1.7-0.7-2.4-2.4-1.8-4.1l15.2-40c0.8-1.9,2.1-3,4.3-3h0.3c2.1,0,3.5,1.2,4.2,3L297.5,70.1z
						 M285.7,56.6L278,34.7l-7.7,21.9H285.7z"/>
					<path class="st0" d="M324.9,71.3c0,1.8-1.4,3.2-3.2,3.2c-1.8,0-3.1-1.4-3.1-3.2v-41c0-1.8,1.4-3.2,3.1-3.2
						c1.8,0,3.2,1.4,3.2,3.2V71.3z"/>
					<path class="st0" d="M353.9,74.1c-1.7,0-3.2-1.5-3.2-3.3V30.3c0-1.8,1.4-3.2,3.1-3.2c1.8,0,3.2,1.4,3.2,3.2v37.9h16.4
						c1.6,0,3,1.3,3,2.9c0,1.7-1.4,3-3,3H353.9z"/>
					<path class="st0" d="M410.6,68.9c6.2,0,9.4-3.7,9.4-7.5c0.1-4.6-3.9-6.6-7.9-7.7l-6-1.5c-9.9-2.4-11.4-8.2-11.4-12.2
						c0-7.9,7.2-13.1,15.1-13.1c7.4,0,12.8,3.9,14.5,9.9c0.1,0.5,0.2,1,0.2,1.6c0,1.5-0.7,2.8-3.1,2.8c-1.2,0-2.4-0.5-2.9-2.2
						c-1.2-4.3-4.5-6.1-8.7-6.1c-4.5,0-8.7,2.8-8.7,7c0,2,0.7,5.1,6.6,6.5l6.1,1.5c8,2,12.6,6.4,12.6,12.8c0,7.5-5.7,14-15.7,14
						c-8.2,0-13.7-4.4-15.6-10.4c-0.1-0.5-0.2-0.9-0.2-1.4c0-1.9,1.5-2.9,3.1-2.9c1.4,0,2.4,0.9,2.8,2.2
						C401.7,65.9,405.5,68.9,410.6,68.9z"/>
				</g>
			</g>
		</g>
	</g>
	<g>
		<path class="st0" d="M51,102h17.6c-0.4-0.3-0.9-0.6-1.3-0.9c-0.4-0.3-0.9-0.6-1.3-0.9c-2.8-2.1-5.5-4.4-8-6.7
			c-2.5-2.4-4.8-4.8-7-7.4"/>
		<path class="st0" d="M51,70c2.7,4.1,5.8,8,9.3,11.7s7.5,7.2,11.8,10.5c2.4,1.8,5,3.6,7.6,5.2c2.6,1.6,5.4,3.2,8.2,4.6h7h7v0v0
			c-4.9-1.9-9.5-4-13.9-6.4c-4.4-2.4-8.6-5.1-12.5-8c-4.6-3.5-8.8-7.2-12.4-11.2c-3.6-4-6.7-8.2-9.3-12.7V31.8V0H51"/>
		<path class="st0" d="M102,47.9V0H53.9c5.2,10.3,11.9,19.7,20,27.7C82,35.9,91.5,42.7,102,47.9z"/>
		<path class="st0" d="M51,102H33.4c0.4-0.3,0.9-0.6,1.3-0.9s0.9-0.6,1.3-0.9c2.8-2.1,5.5-4.4,8-6.7c2.5-2.4,4.8-4.8,7-7.4"/>
		<path class="st0" d="M51,70c-2.7,4.1-5.8,8-9.3,11.7c-3.5,3.7-7.5,7.2-11.8,10.5c-2.4,1.8-5,3.6-7.6,5.2s-5.4,3.2-8.2,4.6H7H0v0
			l0,0c4.9-1.9,9.5-4,13.9-6.4c4.4-2.4,8.6-5.1,12.5-8c4.6-3.5,8.8-7.2,12.4-11.2c3.6-4,6.7-8.2,9.3-12.7V31.8V0L51,0"/>
		<path class="st0" d="M0,47.9L0,0l48.1,0c-5.2,10.3-11.9,19.7-20,27.7C20,35.9,10.5,42.7,0,47.9z"/>
	</g>
</g>
</svg>
