<?xml version="1.0" encoding="utf-8"?>
<!-- Generator: Adobe Illustrator 19.2.1, SVG Export Plug-In . SVG Version: 6.00 Build 0)  -->
<svg version="1.1" id="Layer_1" xmlns="http://www.w3.org/2000/svg" xmlns:xlink="http://www.w3.org/1999/xlink" x="0px" y="0px"
	 viewBox="0 0 29.8 29.8" style="enable-background:new 0 0 29.8 29.8;" xml:space="preserve">
<style type="text/css">
	.st0{fill:#63A87B;}
</style>
<g>
	<path class="st0" d="M14.9,29.8H20c-0.1-0.1-0.3-0.2-0.4-0.3c-0.1-0.1-0.2-0.2-0.4-0.3c-0.8-0.6-1.6-1.3-2.3-2
		c-0.7-0.7-1.4-1.4-2-2.2"/>
	<path class="st0" d="M14.9,20.4c0.8,1.2,1.7,2.3,2.7,3.4c1,1.1,2.2,2.1,3.4,3.1c0.7,0.5,1.5,1,2.2,1.5c0.8,0.5,1.6,0.9,2.4,1.3h2.1
		h2.1v0v0c-1.4-0.5-2.8-1.2-4.1-1.9c-1.3-0.7-2.5-1.5-3.6-2.3c-1.4-1-2.6-2.1-3.6-3.3c-1.1-1.2-2-2.4-2.7-3.7V9.3V0h-0.8"/>
	<path class="st0" d="M29.8,14V0h-14c1.5,3,3.5,5.7,5.8,8.1C23.9,10.5,26.7,12.5,29.8,14z"/>
	<path class="st0" d="M14.9,29.8H9.8c0.1-0.1,0.3-0.2,0.4-0.3c0.1-0.1,0.2-0.2,0.4-0.3c0.8-0.6,1.6-1.3,2.3-2c0.7-0.7,1.4-1.4,2-2.2
		"/>
	<path class="st0" d="M14.9,20.4c-0.8,1.2-1.7,2.3-2.7,3.4S10,26,8.7,26.9c-0.7,0.5-1.5,1-2.2,1.5s-1.6,0.9-2.4,1.3H2.1H0v0l0,0
		c1.4-0.5,2.8-1.2,4.1-1.9c1.3-0.7,2.5-1.5,3.6-2.3c1.4-1,2.6-2.1,3.6-3.3c1.1-1.2,2-2.4,2.7-3.7V9.3V0l0.8,0"/>
	<path class="st0" d="M0,14L0,0l14,0c-1.5,3-3.5,5.7-5.8,8.1C5.8,10.5,3.1,12.5,0,14z"/>
</g>
</svg>
