<?xml version="1.0" encoding="utf-8"?>
<!-- Generator: Adobe Illustrator 19.2.1, SVG Export Plug-In . SVG Version: 6.00 Build 0)  -->
<svg version="1.1" id="Layer_1" xmlns="http://www.w3.org/2000/svg" xmlns:xlink="http://www.w3.org/1999/xlink" x="0px" y="0px"
	 viewBox="0 0 1314 388.2" style="enable-background:new 0 0 1314 388.2;" xml:space="preserve">
<style type="text/css">
	.st0{opacity:0.2;}
	.st1{fill:#63A87B;}
	.st2{fill:#63A87B;stroke:#000000;stroke-width:10;stroke-miterlimit:10;}
</style>
<g class="st0">
	<g>
		<path class="st1" d="M1163.5,151.6c-1.5,0-3.1-0.2-4.6-0.5c-1.5-0.3-2.9-0.7-4.3-1.3c-1.4-0.6-2.7-1.3-3.9-2.1c-1-0.6-2-1.2-3-1.6
			c-1.1-0.5-2.2-0.8-3.3-1c-2.4-0.5-4.8-0.5-7.2,0c-1.1,0.2-2.3,0.6-3.3,1c-1.1,0.4-2.1,1-3,1.6l-2.8-4.1c1.2-0.8,2.5-1.5,3.9-2.1
			c1.4-0.6,2.8-1,4.3-1.3c3-0.6,6.2-0.6,9.2,0c1.5,0.3,2.9,0.7,4.3,1.3c1.4,0.6,2.7,1.3,3.9,2.1c1,0.6,2,1.2,3,1.6
			c1.1,0.5,2.2,0.8,3.3,1c1.2,0.2,2.4,0.4,3.6,0.4V151.6z"/>
		<path class="st1" d="M1027.1,151.6c-1.5,0-3.1-0.2-4.6-0.5c-1.5-0.3-2.9-0.7-4.3-1.3c-1.4-0.6-2.7-1.3-3.9-2.1c-1-0.6-2-1.2-3-1.6
			c-1.1-0.5-2.2-0.8-3.3-1c-2.3-0.5-4.8-0.5-7.2,0c-1.1,0.2-2.3,0.6-3.3,1c-1.1,0.4-2.1,1-3,1.6l-2.8-4.1c1.2-0.8,2.5-1.5,3.9-2.1
			c1.4-0.6,2.8-1,4.3-1.3c3-0.6,6.2-0.6,9.2,0c1.5,0.3,2.9,0.7,4.3,1.3c1.4,0.6,2.7,1.3,3.9,2.1c1,0.6,2,1.2,3,1.6
			c1.1,0.5,2.2,0.8,3.3,1c2.4,0.5,4.8,0.5,7.2,0c1.1-0.2,2.3-0.6,3.3-1c1.1-0.4,2.1-1,3-1.6c1.2-0.8,2.5-1.5,3.9-2.1
			c1.4-0.6,2.8-1,4.3-1.3c3-0.6,6.2-0.6,9.2,0c1.5,0.3,2.9,0.7,4.3,1.3c1.4,0.6,2.7,1.3,3.9,2.1l-2.8,4.1c-1-0.6-2-1.2-3-1.6
			c-1.1-0.5-2.2-0.8-3.3-1c-2.4-0.5-4.8-0.5-7.2,0c-1.1,0.2-2.3,0.6-3.3,1c-1.1,0.4-2.1,1-3,1.6c-1.2,0.8-2.5,1.5-3.9,2.1
			c-1.4,0.6-2.8,1-4.3,1.3C1030.2,151.5,1028.6,151.6,1027.1,151.6z"/>
		<path class="st1" d="M890.6,151.6v-5c1.2,0,2.4-0.1,3.6-0.4c1.1-0.2,2.3-0.6,3.3-1c1.1-0.4,2.1-1,3-1.6c1.2-0.8,2.5-1.5,3.9-2.1
			c1.4-0.6,2.8-1,4.3-1.3c3-0.6,6.2-0.6,9.2,0c1.5,0.3,2.9,0.7,4.3,1.3c1.4,0.6,2.7,1.3,3.9,2.1l-2.8,4.1c-1-0.6-2-1.2-3-1.6
			c-1.1-0.5-2.2-0.8-3.3-1c-2.4-0.5-4.8-0.5-7.2,0c-1.1,0.2-2.3,0.6-3.3,1c-1.1,0.4-2.1,1-3,1.6c-1.2,0.8-2.5,1.5-3.9,2.1
			c-1.4,0.6-2.8,1-4.3,1.3C893.7,151.5,892.2,151.6,890.6,151.6z"/>
		<path class="st1" d="M1164,190c-1.5,0-3.1-0.2-4.6-0.5c-1.5-0.3-2.9-0.7-4.3-1.3c-1.4-0.6-2.7-1.3-3.9-2.1c-1-0.6-2-1.2-3-1.6
			c-1.1-0.5-2.2-0.8-3.3-1c-2.3-0.5-4.8-0.5-7.2,0c-1.1,0.2-2.3,0.6-3.3,1c-1.1,0.4-2.1,1-3,1.6l-2.8-4.1c1.2-0.8,2.5-1.5,3.9-2.1
			c1.4-0.6,2.8-1,4.3-1.3c3-0.6,6.2-0.6,9.2,0c1.5,0.3,2.9,0.7,4.3,1.3c1.4,0.6,2.7,1.3,3.9,2.1c1,0.6,2,1.2,3,1.6
			c1.1,0.5,2.2,0.8,3.3,1c1.2,0.2,2.4,0.4,3.6,0.4V190z"/>
		<path class="st1" d="M1027.5,190c-1.5,0-3.1-0.2-4.6-0.5c-1.5-0.3-2.9-0.7-4.3-1.3c-1.4-0.6-2.7-1.3-3.9-2.1c-1-0.6-2-1.2-3-1.6
			c-1.1-0.5-2.2-0.8-3.3-1c-2.3-0.5-4.8-0.5-7.2,0c-1.1,0.2-2.3,0.6-3.3,1c-1.1,0.4-2.1,1-3,1.6l-2.8-4.1c1.2-0.8,2.5-1.5,3.9-2.1
			c1.4-0.6,2.8-1,4.3-1.3c3-0.6,6.2-0.6,9.2,0c1.5,0.3,2.9,0.7,4.3,1.3c1.4,0.6,2.7,1.3,3.9,2.1c1,0.6,2,1.2,3,1.6
			c1.1,0.5,2.2,0.8,3.3,1c2.4,0.5,4.8,0.5,7.2,0c1.1-0.2,2.3-0.6,3.3-1c1.1-0.4,2.1-1,3-1.6c1.2-0.8,2.5-1.5,3.9-2.1
			c1.4-0.6,2.8-1,4.3-1.3c3-0.6,6.2-0.6,9.2,0c1.5,0.3,2.9,0.7,4.3,1.3c1.4,0.6,2.7,1.3,3.9,2.1l-2.8,4.1c-1-0.6-2-1.2-3-1.6
			c-1.1-0.5-2.2-0.8-3.3-1c-2.4-0.5-4.8-0.5-7.2,0c-1.1,0.2-2.3,0.6-3.3,1c-1.1,0.4-2.1,1-3,1.6c-1.2,0.8-2.5,1.5-3.9,2.1
			c-1.4,0.6-2.8,1-4.3,1.3C1030.6,189.8,1029.1,190,1027.5,190z"/>
		<path class="st1" d="M891.1,190v-5c1.2,0,2.4-0.1,3.6-0.4c1.1-0.2,2.3-0.6,3.3-1c1.1-0.4,2.1-1,3-1.6c1.2-0.8,2.5-1.5,3.9-2.1
			c1.4-0.6,2.8-1,4.3-1.3c3-0.6,6.2-0.6,9.2,0c1.5,0.3,2.9,0.7,4.3,1.3c1.4,0.6,2.7,1.3,3.9,2.1l-2.8,4.1c-1-0.6-2-1.2-3-1.6
			c-1.1-0.5-2.2-0.8-3.3-1c-2.4-0.5-4.8-0.5-7.2,0c-1.1,0.2-2.3,0.6-3.3,1c-1.1,0.4-2.1,1-3,1.6c-1.2,0.8-2.5,1.5-3.9,2.1
			c-1.4,0.6-2.8,1-4.3,1.3C894.2,189.8,892.6,190,891.1,190z"/>
		<path class="st1" d="M1164,171c-1.5,0-3.1-0.2-4.6-0.5c-1.5-0.3-2.9-0.7-4.3-1.3c-1.4-0.6-2.7-1.3-3.9-2.1c-1-0.6-2-1.2-3-1.6
			c-1.1-0.5-2.2-0.8-3.3-1c-2.4-0.5-4.8-0.5-7.2,0c-1.1,0.2-2.3,0.6-3.3,1c-1.1,0.4-2.1,1-3,1.6l-2.8-4.1c1.2-0.8,2.5-1.5,3.9-2.1
			c1.4-0.6,2.8-1,4.3-1.3c3-0.6,6.2-0.6,9.2,0c1.5,0.3,2.9,0.7,4.3,1.3c1.4,0.6,2.7,1.3,3.9,2.1c1,0.6,2,1.2,3,1.6
			c1.1,0.5,2.2,0.8,3.3,1c1.2,0.2,2.4,0.4,3.6,0.4V171z"/>
		<path class="st1" d="M1027.5,171c-1.5,0-3.1-0.2-4.6-0.5c-1.5-0.3-2.9-0.7-4.3-1.3c-1.4-0.6-2.7-1.3-3.9-2.1c-1-0.6-2-1.2-3-1.6
			c-1.1-0.5-2.2-0.8-3.3-1c-2.4-0.5-4.8-0.5-7.2,0c-1.1,0.2-2.3,0.6-3.3,1c-1.1,0.4-2.1,1-3,1.6L992,163c1.2-0.8,2.5-1.5,3.9-2.1
			c1.4-0.6,2.8-1,4.3-1.3c3-0.6,6.2-0.6,9.2,0c1.5,0.3,2.9,0.7,4.3,1.3c1.4,0.6,2.7,1.3,3.9,2.1c1,0.6,2,1.2,3,1.6
			c1.1,0.5,2.2,0.8,3.3,1c2.3,0.5,4.8,0.5,7.2,0c1.1-0.2,2.3-0.6,3.3-1c1.1-0.4,2.1-1,3-1.6c1.2-0.8,2.5-1.5,3.9-2.1
			c1.4-0.6,2.8-1,4.3-1.3c3-0.6,6.2-0.6,9.2,0c1.5,0.3,2.9,0.7,4.3,1.3c1.4,0.6,2.7,1.3,3.9,2.1l-2.8,4.1c-1-0.6-2-1.2-3-1.6
			c-1.1-0.5-2.2-0.8-3.3-1c-2.4-0.5-4.8-0.5-7.2,0c-1.1,0.2-2.3,0.6-3.3,1c-1.1,0.4-2.1,1-3,1.6c-1.2,0.8-2.5,1.5-3.9,2.1
			c-1.4,0.6-2.8,1-4.3,1.3C1030.6,170.9,1029.1,171,1027.5,171z"/>
		<path class="st1" d="M891.1,171v-5c1.2,0,2.4-0.1,3.6-0.4c1.1-0.2,2.3-0.6,3.3-1c1.1-0.4,2.1-1,3-1.6c1.2-0.8,2.5-1.5,3.9-2.1
			c1.4-0.6,2.8-1,4.3-1.3c3-0.6,6.2-0.6,9.2,0c1.5,0.3,2.9,0.7,4.3,1.3c1.4,0.6,2.7,1.3,3.9,2.1l-2.8,4.1c-1-0.6-2-1.2-3-1.6
			c-1.1-0.5-2.2-0.8-3.3-1c-2.4-0.5-4.8-0.5-7.2,0c-1.1,0.2-2.3,0.6-3.3,1c-1.1,0.4-2.1,1-3,1.6c-1.2,0.8-2.5,1.5-3.9,2.1
			c-1.4,0.6-2.8,1-4.3,1.3C894.2,170.9,892.6,171,891.1,171z"/>
	</g>
	<path class="st1" d="M105,150.6C72.4,150.6,42,127,36,122l-34.7,9.3L0,126.5l37.3-9.9l1,0.9c0.3,0.3,32.9,28.2,66.7,28.2V150.6z"/>
	<rect x="173.3" y="145.6" class="st1" width="34.2" height="5"/>
	<rect x="136.6" y="330.6" class="st1" width="5" height="57.6"/>
	<polygon class="st1" points="153.1,348.1 139.1,334.1 125.1,348.1 121.6,344.6 139.1,327 156.7,344.6 	"/>
	<polygon class="st1" points="153.1,367.3 139.1,353.3 125.1,367.3 121.6,363.8 139.1,346.2 156.7,363.8 	"/>
	<path class="st1" d="M480.4,362.9c-1.5,0-3.1-0.2-4.6-0.5c-1.5-0.3-2.9-0.7-4.3-1.3c-1.4-0.6-2.7-1.3-3.9-2.1c-1-0.6-2-1.2-3-1.6
		c-1.1-0.5-2.2-0.8-3.3-1c-2.4-0.5-4.8-0.5-7.2,0c-1.1,0.2-2.3,0.6-3.3,1c-1.1,0.4-2.1,1-3,1.6c-1.2,0.8-2.5,1.5-3.9,2.1
		c-1.4,0.6-2.8,1-4.3,1.3c-3,0.6-6.2,0.6-9.2,0c-1.5-0.3-2.9-0.7-4.3-1.3c-1.4-0.6-2.7-1.3-3.9-2.1c-1-0.6-2-1.2-3-1.6
		c-1.1-0.5-2.2-0.8-3.3-1c-2.4-0.5-4.8-0.5-7.2,0c-1.1,0.2-2.3,0.6-3.3,1c-1.1,0.4-2.1,1-3,1.6c-1.2,0.8-2.5,1.5-3.9,2.1
		c-1.4,0.6-2.8,1-4.3,1.3c-3,0.6-6.2,0.6-9.2,0c-1.5-0.3-2.9-0.7-4.3-1.3c-1.4-0.6-2.7-1.3-3.9-2.1c-1-0.6-2-1.2-3-1.6
		c-1.1-0.5-2.2-0.8-3.3-1c-2.4-0.5-4.8-0.5-7.2,0c-1.1,0.2-2.3,0.6-3.3,1c-1.1,0.4-2.1,1-3,1.6c-1.2,0.8-2.5,1.5-3.9,2.1
		c-1.4,0.6-2.8,1-4.3,1.3c-3,0.6-6.2,0.6-9.2,0c-1.5-0.3-2.9-0.7-4.3-1.3c-1.4-0.6-2.7-1.3-3.9-2.1c-1-0.6-2-1.2-3-1.6
		c-1.1-0.5-2.2-0.8-3.3-1c-2.4-0.5-4.8-0.5-7.2,0c-1.1,0.2-2.3,0.6-3.3,1c-1.1,0.4-2.1,1-3,1.6c-1.2,0.8-2.5,1.5-3.9,2.1
		c-1.4,0.6-2.8,1-4.3,1.3c-3,0.6-6.2,0.6-9.2,0c-1.5-0.3-2.9-0.7-4.3-1.3c-1.4-0.6-2.7-1.3-3.9-2.1c-1-0.6-2-1.2-3-1.6
		c-1.1-0.5-2.2-0.8-3.3-1c-2.4-0.5-4.8-0.5-7.2,0c-1.1,0.2-2.3,0.6-3.3,1c-1.1,0.4-2.1,1-3,1.6c-1.2,0.8-2.5,1.5-3.9,2.1
		c-1.4,0.6-2.8,1-4.3,1.3c-3,0.6-6.2,0.6-9.2,0c-1.5-0.3-2.9-0.7-4.3-1.3c-1.4-0.6-2.7-1.3-3.9-2.1c-1-0.6-2-1.2-3-1.6
		c-1.1-0.5-2.2-0.8-3.3-1c-2.4-0.5-4.8-0.5-7.2,0c-1.1,0.2-2.3,0.6-3.3,1c-1.1,0.4-2.1,1-3,1.6c-1.2,0.8-2.5,1.5-3.9,2.1
		c-1.4,0.6-2.8,1-4.3,1.3c-1.5,0.3-3.1,0.5-4.6,0.5v-5c1.2,0,2.4-0.1,3.6-0.4c1.1-0.2,2.3-0.6,3.3-1c1.1-0.4,2.1-1,3-1.6
		c1.2-0.8,2.5-1.5,3.9-2.1c1.4-0.6,2.8-1,4.3-1.3c3-0.6,6.2-0.6,9.2,0c1.5,0.3,2.9,0.7,4.3,1.3c1.4,0.6,2.7,1.3,3.9,2.1
		c1,0.6,2,1.2,3,1.6c1.1,0.5,2.2,0.8,3.3,1c2.4,0.5,4.8,0.5,7.2,0c1.1-0.2,2.3-0.6,3.3-1c1.1-0.4,2.1-1,3-1.6
		c1.2-0.8,2.5-1.5,3.9-2.1c1.4-0.6,2.8-1,4.3-1.3c3-0.6,6.2-0.6,9.2,0c1.5,0.3,2.9,0.7,4.3,1.3c1.4,0.6,2.7,1.3,3.9,2.1
		c1,0.6,2,1.2,3,1.6c1.1,0.5,2.2,0.8,3.3,1c2.3,0.5,4.8,0.5,7.2,0c1.1-0.2,2.3-0.6,3.3-1c1.1-0.4,2.1-1,3-1.6
		c1.2-0.8,2.5-1.5,3.9-2.1c1.4-0.6,2.8-1,4.3-1.3c3-0.6,6.2-0.6,9.2,0c1.5,0.3,2.9,0.7,4.3,1.3c1.4,0.6,2.7,1.3,3.9,2.1
		c1,0.6,2,1.2,3,1.6c1.1,0.5,2.2,0.8,3.3,1c2.3,0.5,4.8,0.5,7.2,0c1.1-0.2,2.3-0.6,3.3-1c1.1-0.4,2.1-1,3-1.6
		c1.2-0.8,2.5-1.5,3.9-2.1c1.4-0.6,2.8-1,4.3-1.3c3-0.6,6.2-0.6,9.2,0c1.5,0.3,2.9,0.7,4.3,1.3c1.4,0.6,2.7,1.3,3.9,2.1
		c1,0.6,2,1.2,3,1.6c1.1,0.5,2.2,0.8,3.3,1c2.4,0.5,4.8,0.5,7.2,0c1.1-0.2,2.3-0.6,3.3-1c1.1-0.4,2.1-1,3-1.6
		c1.2-0.8,2.5-1.5,3.9-2.1c1.4-0.6,2.8-1,4.3-1.3c3-0.6,6.2-0.6,9.2,0c1.5,0.3,2.9,0.7,4.3,1.3c1.4,0.6,2.7,1.3,3.9,2.1
		c1,0.6,2,1.2,3,1.6c1.1,0.5,2.2,0.8,3.3,1c2.3,0.5,4.8,0.5,7.2,0c1.1-0.2,2.3-0.6,3.3-1c1.1-0.4,2.1-1,3-1.6
		c1.2-0.8,2.5-1.5,3.9-2.1c1.4-0.6,2.8-1,4.3-1.3c3-0.6,6.2-0.6,9.2,0c1.5,0.3,2.9,0.7,4.3,1.3c1.4,0.6,2.7,1.3,3.9,2.1
		c1,0.6,2,1.2,3,1.6c1.1,0.5,2.2,0.8,3.3,1c1.2,0.2,2.4,0.4,3.6,0.4V362.9z"/>
	<path class="st1" d="M480.4,343.9c-1.5,0-3.1-0.2-4.6-0.5c-1.5-0.3-2.9-0.7-4.3-1.3c-1.4-0.6-2.7-1.3-3.9-2.1c-1-0.6-2-1.2-3-1.6
		c-1.1-0.5-2.2-0.8-3.3-1c-2.4-0.5-4.8-0.5-7.2,0c-1.1,0.2-2.3,0.6-3.3,1c-1.1,0.4-2.1,1-3,1.6c-1.2,0.8-2.5,1.5-3.9,2.1
		c-1.4,0.6-2.8,1-4.3,1.3c-3,0.6-6.2,0.6-9.2,0c-1.5-0.3-2.9-0.7-4.3-1.3c-1.4-0.6-2.7-1.3-3.9-2.1c-1-0.6-2-1.2-3-1.6
		c-1.1-0.5-2.2-0.8-3.3-1c-2.4-0.5-4.8-0.5-7.2,0c-1.1,0.2-2.3,0.6-3.3,1c-1.1,0.4-2.1,1-3,1.6c-1.2,0.8-2.5,1.5-3.9,2.1
		c-1.4,0.6-2.8,1-4.3,1.3c-3,0.6-6.2,0.6-9.2,0c-1.5-0.3-2.9-0.7-4.3-1.3c-1.4-0.6-2.7-1.3-3.9-2.1c-1-0.6-2-1.2-3-1.6
		c-1.1-0.5-2.2-0.8-3.3-1c-2.4-0.5-4.8-0.5-7.2,0c-1.1,0.2-2.3,0.6-3.3,1c-1.1,0.4-2.1,1-3,1.6c-1.2,0.8-2.5,1.5-3.9,2.1
		c-1.4,0.6-2.8,1-4.3,1.3c-3,0.6-6.2,0.6-9.2,0c-1.5-0.3-2.9-0.7-4.3-1.3c-1.4-0.6-2.7-1.3-3.9-2.1c-1-0.6-2-1.2-3-1.6
		c-1.1-0.5-2.2-0.8-3.3-1c-2.4-0.5-4.8-0.5-7.2,0c-1.1,0.2-2.3,0.6-3.3,1c-1.1,0.4-2.1,1-3,1.6c-1.2,0.8-2.5,1.5-3.9,2.1
		c-1.4,0.6-2.8,1-4.3,1.3c-3,0.6-6.2,0.6-9.2,0c-1.5-0.3-2.9-0.7-4.3-1.3c-1.4-0.6-2.7-1.3-3.9-2.1c-1-0.6-2-1.2-3-1.6
		c-1.1-0.5-2.2-0.8-3.3-1c-2.4-0.5-4.8-0.5-7.2,0c-1.1,0.2-2.3,0.6-3.3,1c-1.1,0.4-2.1,1-3,1.6c-1.2,0.8-2.5,1.5-3.9,2.1
		c-1.4,0.6-2.8,1-4.3,1.3c-3,0.6-6.2,0.6-9.2,0c-1.5-0.3-2.9-0.7-4.3-1.3c-1.4-0.6-2.7-1.3-3.9-2.1c-1-0.6-2-1.2-3-1.6
		c-1.1-0.5-2.2-0.8-3.3-1c-2.4-0.5-4.8-0.5-7.2,0c-1.1,0.2-2.3,0.6-3.3,1c-1.1,0.4-2.1,1-3,1.6c-1.2,0.8-2.5,1.5-3.9,2.1
		c-1.4,0.6-2.8,1-4.3,1.3c-1.5,0.3-3.1,0.5-4.6,0.5v-5c1.2,0,2.4-0.1,3.6-0.4c1.1-0.2,2.3-0.6,3.3-1c1.1-0.4,2.1-1,3-1.6
		c1.2-0.8,2.5-1.5,3.9-2.1c1.4-0.6,2.8-1,4.3-1.3c3-0.6,6.2-0.6,9.2,0c1.5,0.3,2.9,0.7,4.3,1.3c1.4,0.6,2.7,1.3,3.9,2.1
		c1,0.6,2,1.2,3,1.6c1.1,0.5,2.2,0.8,3.3,1c2.4,0.5,4.8,0.5,7.2,0c1.1-0.2,2.3-0.6,3.3-1c1.1-0.4,2.1-1,3-1.6
		c1.2-0.8,2.5-1.5,3.9-2.1c1.4-0.6,2.8-1,4.3-1.3c3-0.6,6.2-0.6,9.2,0c1.5,0.3,2.9,0.7,4.3,1.3c1.4,0.6,2.7,1.3,3.9,2.1
		c1,0.6,2,1.2,3,1.6c1.1,0.5,2.2,0.8,3.3,1c2.3,0.5,4.8,0.5,7.2,0c1.1-0.2,2.3-0.6,3.3-1c1.1-0.4,2.1-1,3-1.6
		c1.2-0.8,2.5-1.5,3.9-2.1c1.4-0.6,2.8-1,4.3-1.3c3-0.6,6.2-0.6,9.2,0c1.5,0.3,2.9,0.7,4.3,1.3c1.4,0.6,2.7,1.3,3.9,2.1
		c1,0.6,2,1.2,3,1.6c1.1,0.5,2.2,0.8,3.3,1c2.3,0.5,4.8,0.5,7.2,0c1.1-0.2,2.3-0.6,3.3-1c1.1-0.4,2.1-1,3-1.6
		c1.2-0.8,2.5-1.5,3.9-2.1c1.4-0.6,2.8-1,4.3-1.3c3-0.6,6.2-0.6,9.2,0c1.5,0.3,2.9,0.7,4.3,1.3c1.4,0.6,2.7,1.3,3.9,2.1
		c1,0.6,2,1.2,3,1.6c1.1,0.5,2.2,0.8,3.3,1c2.4,0.5,4.8,0.5,7.2,0c1.1-0.2,2.3-0.6,3.3-1c1.1-0.4,2.1-1,3-1.6
		c1.2-0.8,2.5-1.5,3.9-2.1c1.4-0.6,2.8-1,4.3-1.3c3-0.6,6.2-0.6,9.2,0c1.5,0.3,2.9,0.7,4.3,1.3c1.4,0.6,2.7,1.3,3.9,2.1
		c1,0.6,2,1.2,3,1.6c1.1,0.5,2.2,0.8,3.3,1c2.3,0.5,4.8,0.5,7.2,0c1.1-0.2,2.3-0.6,3.3-1c1.1-0.4,2.1-1,3-1.6
		c1.2-0.8,2.5-1.5,3.9-2.1c1.4-0.6,2.8-1,4.3-1.3c3-0.6,6.2-0.6,9.2,0c1.5,0.3,2.9,0.7,4.3,1.3c1.4,0.6,2.7,1.3,3.9,2.1
		c1,0.6,2,1.2,3,1.6c1.1,0.5,2.2,0.8,3.3,1c1.2,0.2,2.4,0.4,3.6,0.4V343.9z"/>
	<path class="st1" d="M480.8,381.9c-1.5,0-3.1-0.2-4.6-0.5c-1.5-0.3-2.9-0.7-4.3-1.3c-1.4-0.6-2.7-1.3-3.9-2.1c-1-0.6-2-1.2-3-1.6
		c-1.1-0.5-2.2-0.8-3.3-1c-2.3-0.5-4.8-0.5-7.2,0c-1.1,0.2-2.3,0.6-3.3,1c-1.1,0.4-2.1,1-3,1.6c-1.2,0.8-2.5,1.5-3.9,2.1
		c-1.4,0.6-2.8,1-4.3,1.3c-3,0.6-6.2,0.6-9.2,0c-1.5-0.3-2.9-0.7-4.3-1.3c-1.4-0.6-2.7-1.3-3.9-2.1c-1-0.6-2-1.2-3-1.6
		c-1.1-0.5-2.2-0.8-3.3-1c-2.3-0.5-4.8-0.5-7.2,0c-1.1,0.2-2.3,0.6-3.3,1c-1.1,0.4-2.1,1-3,1.6c-1.2,0.8-2.5,1.5-3.9,2.1
		c-1.4,0.6-2.8,1-4.3,1.3c-3,0.6-6.2,0.6-9.2,0c-1.5-0.3-2.9-0.7-4.3-1.3c-1.4-0.6-2.7-1.3-3.9-2.1c-1-0.6-2-1.2-3-1.6
		c-1.1-0.5-2.2-0.8-3.3-1c-2.4-0.5-4.8-0.5-7.2,0c-1.1,0.2-2.3,0.6-3.3,1c-1.1,0.4-2.1,1-3,1.6c-1.2,0.8-2.5,1.5-3.9,2.1
		c-1.4,0.6-2.8,1-4.3,1.3c-3,0.6-6.2,0.6-9.2,0c-1.5-0.3-2.9-0.7-4.3-1.3c-1.4-0.6-2.7-1.3-3.9-2.1c-1-0.6-2-1.2-3-1.6
		c-1.1-0.5-2.2-0.8-3.3-1c-2.3-0.5-4.8-0.5-7.2,0c-1.1,0.2-2.3,0.6-3.3,1c-1.1,0.4-2.1,1-3,1.6c-1.2,0.8-2.5,1.5-3.9,2.1
		c-1.4,0.6-2.8,1-4.3,1.3c-3,0.6-6.2,0.6-9.2,0c-1.5-0.3-2.9-0.7-4.3-1.3c-1.4-0.6-2.7-1.3-3.9-2.1c-1-0.6-2-1.2-3-1.6
		c-1.1-0.5-2.2-0.8-3.3-1c-2.3-0.5-4.8-0.5-7.2,0c-1.1,0.2-2.3,0.6-3.3,1c-1.1,0.4-2.1,1-3,1.6c-1.2,0.8-2.5,1.5-3.9,2.1
		c-1.4,0.6-2.8,1-4.3,1.3c-3,0.6-6.2,0.6-9.2,0c-1.5-0.3-2.9-0.7-4.3-1.3c-1.4-0.6-2.7-1.3-3.9-2.1c-1-0.6-2-1.2-3-1.6
		c-1.1-0.5-2.2-0.8-3.3-1c-2.4-0.5-4.8-0.5-7.2,0c-1.1,0.2-2.3,0.6-3.3,1c-1.1,0.4-2.1,1-3,1.6c-1.2,0.8-2.5,1.5-3.9,2.1
		c-1.4,0.6-2.8,1-4.3,1.3c-1.5,0.3-3.1,0.5-4.6,0.5v-5c1.2,0,2.4-0.1,3.6-0.4c1.1-0.2,2.3-0.6,3.3-1c1.1-0.4,2.1-1,3-1.6
		c1.2-0.8,2.5-1.5,3.9-2.1c1.4-0.6,2.8-1,4.3-1.3c3-0.6,6.2-0.6,9.2,0c1.5,0.3,2.9,0.7,4.3,1.3c1.4,0.6,2.7,1.3,3.9,2.1
		c1,0.6,2,1.2,3,1.6c1.1,0.5,2.2,0.8,3.3,1c2.4,0.5,4.8,0.5,7.2,0c1.1-0.2,2.3-0.6,3.3-1c1.1-0.4,2.1-1,3-1.6
		c1.2-0.8,2.5-1.5,3.9-2.1c1.4-0.6,2.8-1,4.3-1.3c3-0.6,6.2-0.6,9.2,0c1.5,0.3,2.9,0.7,4.3,1.3c1.4,0.6,2.7,1.3,3.9,2.1
		c1,0.6,2,1.2,3,1.6c1.1,0.5,2.2,0.8,3.3,1c2.4,0.5,4.8,0.5,7.2,0c1.1-0.2,2.3-0.6,3.3-1c1.1-0.4,2.1-1,3-1.6
		c1.2-0.8,2.5-1.5,3.9-2.1c1.4-0.6,2.8-1,4.3-1.3c3-0.6,6.2-0.6,9.2,0c1.5,0.3,2.9,0.7,4.3,1.3c1.4,0.6,2.7,1.3,3.9,2.1
		c1,0.6,2,1.2,3,1.6c1.1,0.5,2.2,0.8,3.3,1c2.4,0.5,4.8,0.5,7.2,0c1.1-0.2,2.3-0.6,3.3-1c1.1-0.4,2.1-1,3-1.6
		c1.2-0.8,2.5-1.5,3.9-2.1c1.4-0.6,2.8-1,4.3-1.3c3-0.6,6.2-0.6,9.2,0c1.5,0.3,2.9,0.7,4.3,1.3c1.4,0.6,2.7,1.3,3.9,2.1
		c1,0.6,2,1.2,3,1.6c1.1,0.5,2.2,0.8,3.3,1c2.4,0.5,4.8,0.5,7.2,0c1.1-0.2,2.3-0.6,3.3-1c1.1-0.4,2.1-1,3-1.6
		c1.2-0.8,2.5-1.5,3.9-2.1c1.4-0.6,2.8-1,4.3-1.3c3-0.6,6.2-0.6,9.2,0c1.5,0.3,2.9,0.7,4.3,1.3c1.4,0.6,2.7,1.3,3.9,2.1
		c1,0.6,2,1.2,3,1.6c1.1,0.5,2.2,0.8,3.3,1c2.4,0.5,4.8,0.5,7.2,0c1.1-0.2,2.3-0.6,3.3-1c1.1-0.4,2.1-1,3-1.6
		c1.2-0.8,2.5-1.5,3.9-2.1c1.4-0.6,2.8-1,4.3-1.3c3-0.6,6.2-0.6,9.2,0c1.5,0.3,2.9,0.7,4.3,1.3c1.4,0.6,2.7,1.3,3.9,2.1
		c1,0.6,2,1.2,3,1.6c1.1,0.5,2.2,0.8,3.3,1c1.2,0.2,2.4,0.4,3.6,0.4V381.9z"/>
	<rect x="136.6" y="272.9" class="st1" width="5" height="57.6"/>
	<polygon class="st1" points="153.1,290.5 139.1,276.5 125.1,290.5 121.6,287 139.1,269.4 156.7,287 	"/>
	<polygon class="st1" points="153.1,309.7 139.1,295.7 125.1,309.7 121.6,306.2 139.1,288.6 156.7,306.2 	"/>
	<polygon class="st1" points="153.1,328.9 139.1,314.9 125.1,328.9 121.6,325.4 139.1,307.8 156.7,325.4 	"/>
	<rect x="136.6" y="215.3" class="st1" width="5" height="57.6"/>
	<polygon class="st1" points="153.1,232.9 139.1,218.9 125.1,232.9 121.6,229.3 139.1,211.8 156.7,229.3 	"/>
	<polygon class="st1" points="153.1,252.1 139.1,238.1 125.1,252.1 121.6,248.5 139.1,231 156.7,248.5 	"/>
	<polygon class="st1" points="153.1,271.3 139.1,257.3 125.1,271.3 121.6,267.7 139.1,250.2 156.7,267.7 	"/>
	<rect x="136.6" y="157.7" class="st1" width="5" height="57.6"/>
	<polygon class="st1" points="153.1,175.2 139.1,161.2 125.1,175.2 121.6,171.7 139.1,154.2 156.7,171.7 	"/>
	<polygon class="st1" points="153.1,194.5 139.1,180.4 125.1,194.5 121.6,190.9 139.1,173.4 156.7,190.9 	"/>
	<polygon class="st1" points="153.1,213.7 139.1,199.6 125.1,213.7 121.6,210.1 139.1,192.6 156.7,210.1 	"/>
	<rect x="136.6" y="100.1" class="st1" width="5" height="57.6"/>
	<polygon class="st1" points="153.1,117.6 139.1,103.6 125.1,117.6 121.6,114.1 139.1,96.5 156.7,114.1 	"/>
	<polygon class="st1" points="153.1,136.8 139.1,122.8 125.1,136.8 121.6,133.3 139.1,115.7 156.7,133.3 	"/>
	<polygon class="st1" points="153.1,156 139.1,142 125.1,156 121.6,152.5 139.1,135 156.7,152.5 	"/>
	<rect x="136.6" y="42.5" class="st1" width="5" height="57.6"/>
	<polygon class="st1" points="153.1,60 139.1,46 125.1,60 121.6,56.5 139.1,38.9 156.7,56.5 	"/>
	<polygon class="st1" points="153.1,79.2 139.1,65.2 125.1,79.2 121.6,75.7 139.1,58.1 156.7,75.7 	"/>
	<polygon class="st1" points="153.1,98.4 139.1,84.4 125.1,98.4 121.6,94.9 139.1,77.3 156.7,94.9 	"/>
	<rect x="68.3" y="80.9" class="st1" width="5" height="57.6"/>
	<polygon class="st1" points="84.8,98.4 70.8,84.4 56.8,98.4 53.3,94.9 70.8,77.3 88.4,94.9 	"/>
	<polygon class="st1" points="84.8,117.6 70.8,103.6 56.8,117.6 53.3,114.1 70.8,96.6 88.4,114.1 	"/>
	<rect x="68.3" y="311.2" class="st1" width="5" height="57.6"/>
	<polygon class="st1" points="84.8,328.7 70.8,314.7 56.8,328.7 53.3,325.2 70.8,307.6 88.4,325.2 	"/>
	<polygon class="st1" points="84.8,347.9 70.8,333.9 56.8,347.9 53.3,344.4 70.8,326.8 88.4,344.4 	"/>
	<rect x="68.3" y="253.5" class="st1" width="5" height="57.6"/>
	<polygon class="st1" points="84.8,271.1 70.8,257.1 56.8,271.1 53.3,267.5 70.8,250 88.4,267.5 	"/>
	<polygon class="st1" points="84.8,290.3 70.8,276.3 56.8,290.3 53.3,286.8 70.8,269.2 88.4,286.8 	"/>
	<polygon class="st1" points="84.8,309.5 70.8,295.5 56.8,309.5 53.3,306 70.8,288.4 88.4,306 	"/>
	<rect x="68.3" y="195.9" class="st1" width="5" height="57.6"/>
	<polygon class="st1" points="84.8,213.5 70.8,199.4 56.8,213.5 53.3,209.9 70.8,192.4 88.4,209.9 	"/>
	<polygon class="st1" points="84.8,232.7 70.8,218.7 56.8,232.7 53.3,229.1 70.8,211.6 88.4,229.1 	"/>
	<polygon class="st1" points="84.8,251.9 70.8,237.9 56.8,251.9 53.3,248.3 70.8,230.8 88.4,248.3 	"/>
	<rect x="205" y="234.5" class="st1" width="5" height="57.6"/>
	<polygon class="st1" points="193.4,252.1 189.9,248.5 207.5,231 225,248.5 221.5,252.1 207.5,238.1 	"/>
	<polygon class="st1" points="193.4,271.3 189.9,267.7 207.5,250.2 225,267.7 221.5,271.3 207.5,257.3 	"/>
	<rect x="205" y="176.9" class="st1" width="5" height="57.6"/>
	<polygon class="st1" points="193.4,194.5 189.9,190.9 207.5,173.4 225,190.9 221.5,194.5 207.5,180.4 	"/>
	<polygon class="st1" points="193.4,213.7 189.9,210.1 207.5,192.6 225,210.1 221.5,213.7 207.5,199.6 	"/>
	<polygon class="st1" points="193.4,232.9 189.9,229.3 207.5,211.8 225,229.3 221.5,232.9 207.5,218.9 	"/>
	<rect x="205.4" y="61.3" class="st1" width="5" height="57.6"/>
	<polygon class="st1" points="193.9,78.8 190.4,75.3 207.9,57.7 225.5,75.3 221.9,78.8 207.9,64.8 	"/>
	<polygon class="st1" points="193.9,98 190.4,94.5 207.9,76.9 225.5,94.5 221.9,98 207.9,84 	"/>
	<rect x="273.4" y="80.1" class="st1" width="5" height="57.6"/>
	<polygon class="st1" points="289.9,97.7 275.9,83.7 261.9,97.7 258.4,94.1 275.9,76.6 293.5,94.1 	"/>
	<polygon class="st1" points="289.9,116.9 275.9,102.9 261.9,116.9 258.4,113.4 275.9,95.8 293.5,113.4 	"/>
	<rect x="273.4" y="22.5" class="st1" width="5" height="57.6"/>
	<polygon class="st1" points="289.9,40.1 275.9,26 261.9,40.1 258.4,36.5 275.9,19 293.5,36.5 	"/>
	<polygon class="st1" points="289.9,59.3 275.9,45.3 261.9,59.3 258.4,55.7 275.9,38.2 293.5,55.7 	"/>
	<polygon class="st1" points="289.9,78.5 275.9,64.5 261.9,78.5 258.4,74.9 275.9,57.4 293.5,74.9 	"/>
	<rect x="410.1" y="234" class="st1" width="5" height="57.6"/>
	<polygon class="st1" points="426.6,251.6 412.6,237.6 398.6,251.6 395,248 412.6,230.5 430.1,248 	"/>
	<polygon class="st1" points="426.6,270.8 412.6,256.8 398.6,270.8 395,267.2 412.6,249.7 430.1,267.2 	"/>
	<rect x="410.1" y="176.4" class="st1" width="5" height="57.6"/>
	<polygon class="st1" points="426.6,194 412.6,179.9 398.6,194 395,190.4 412.6,172.9 430.1,190.4 	"/>
	<polygon class="st1" points="426.6,213.2 412.6,199.1 398.6,213.2 395,209.6 412.6,192.1 430.1,209.6 	"/>
	<polygon class="st1" points="426.6,232.4 412.6,218.4 398.6,232.4 395,228.8 412.6,211.3 430.1,228.8 	"/>
	<rect x="410.1" y="118.8" class="st1" width="5" height="57.6"/>
	<polygon class="st1" points="426.6,136.3 412.6,122.3 398.6,136.3 395,132.8 412.6,115.2 430.1,132.8 	"/>
	<polygon class="st1" points="426.6,155.5 412.6,141.5 398.6,155.5 395,152 412.6,134.5 430.1,152 	"/>
	<polygon class="st1" points="426.6,174.7 412.6,160.7 398.6,174.7 395,171.2 412.6,153.7 430.1,171.2 	"/>
	<rect x="410.1" y="61.2" class="st1" width="5" height="57.6"/>
	<polygon class="st1" points="426.6,78.7 412.6,64.7 398.6,78.7 395,75.2 412.6,57.6 430.1,75.2 	"/>
	<polygon class="st1" points="426.6,97.9 412.6,83.9 398.6,97.9 395,94.4 412.6,76.8 430.1,94.4 	"/>
	<polygon class="st1" points="426.6,117.1 412.6,103.1 398.6,117.1 395,113.6 412.6,96 430.1,113.6 	"/>
	<rect x="410.1" y="3.5" class="st1" width="5" height="57.6"/>
	<polygon class="st1" points="426.6,21.1 412.6,7.1 398.6,21.1 395,17.5 412.6,0 430.1,17.5 	"/>
	<polygon class="st1" points="426.6,40.3 412.6,26.3 398.6,40.3 395,36.8 412.6,19.2 430.1,36.8 	"/>
	<polygon class="st1" points="426.6,59.5 412.6,45.5 398.6,59.5 395,56 412.6,38.4 430.1,56 	"/>
	<rect x="273.3" y="196.4" class="st1" width="5" height="57.6"/>
	<polygon class="st1" points="289.8,213.9 275.8,199.9 261.8,213.9 258.2,210.4 275.8,192.9 293.3,210.4 	"/>
	<polygon class="st1" points="289.8,233.2 275.8,219.1 261.8,233.2 258.2,229.6 275.8,212.1 293.3,229.6 	"/>
	<path class="st1" d="M277.7,293.8l-3.8-3.3c0.7-0.8,17.1-19.4,70.4-20.1l22.2,0c0.8-4.1,3.2-13.3,9.6-24.3l4.3,2.5
		c-7.9,13.5-9.3,24.5-9.3,24.6l-0.3,2.2h-2.2l-24.3,0C293.7,276.1,277.8,293.6,277.7,293.8z"/>
	<rect x="341.9" y="215.3" class="st1" width="5" height="57.6"/>
	<polygon class="st1" points="358.4,232.9 344.4,218.8 330.3,232.9 326.8,229.3 344.4,211.8 361.9,229.3 	"/>
	<polygon class="st1" points="358.4,252.1 344.4,238.1 330.3,252.1 326.8,248.5 344.4,231 361.9,248.5 	"/>
	<rect x="341.9" y="157.7" class="st1" width="5" height="57.6"/>
	<polygon class="st1" points="358.4,175.2 344.4,161.2 330.3,175.2 326.8,171.7 344.4,154.2 361.9,171.7 	"/>
	<polygon class="st1" points="358.4,194.4 344.4,180.4 330.3,194.4 326.8,190.9 344.4,173.4 361.9,190.9 	"/>
	<polygon class="st1" points="358.4,213.7 344.4,199.6 330.3,213.7 326.8,210.1 344.4,192.6 361.9,210.1 	"/>
	<rect x="341.9" y="100.1" class="st1" width="5" height="57.6"/>
	<polygon class="st1" points="358.4,117.6 344.4,103.6 330.3,117.6 326.8,114.1 344.4,96.5 361.9,114.1 	"/>
	<polygon class="st1" points="358.4,136.8 344.4,122.8 330.3,136.8 326.8,133.3 344.4,115.7 361.9,133.3 	"/>
	<polygon class="st1" points="358.4,156 344.4,142 330.3,156 326.8,152.5 344.4,134.9 361.9,152.5 	"/>
	<rect x="341.9" y="42.4" class="st1" width="5" height="57.6"/>
	<polygon class="st1" points="358.4,60 344.4,46 330.3,60 326.8,56.5 344.4,38.9 361.9,56.5 	"/>
	<polygon class="st1" points="358.4,79.2 344.4,65.2 330.3,79.2 326.8,75.7 344.4,58.1 361.9,75.7 	"/>
	<polygon class="st1" points="358.4,98.4 344.4,84.4 330.3,98.4 326.8,94.9 344.4,77.3 361.9,94.9 	"/>
	<path class="st2" d="M378.3,234.6"/>
	<path class="st1" d="M451.3,169l-2.7-4.2c1.3-0.8,32.2-19.7,100.5-19.7v5C482.4,150.1,451.6,168.8,451.3,169z"/>
	<rect x="224.5" y="145.8" class="st1" width="17.1" height="5"/>
	<rect x="478.3" y="100.2" class="st1" width="5" height="57.6"/>
	<polygon class="st1" points="494.8,117.7 480.8,103.7 466.8,117.7 463.3,114.2 480.8,96.6 498.4,114.2 	"/>
	<polygon class="st1" points="494.8,136.9 480.8,122.9 466.8,136.9 463.3,133.4 480.8,115.8 498.4,133.4 	"/>
	<rect x="478.3" y="42.5" class="st1" width="5" height="57.6"/>
	<polygon class="st1" points="494.8,60.1 480.8,46.1 466.8,60.1 463.3,56.5 480.8,39 498.4,56.5 	"/>
	<polygon class="st1" points="494.8,79.3 480.8,65.3 466.8,79.3 463.3,75.8 480.8,58.2 498.4,75.8 	"/>
	<polygon class="st1" points="494.8,98.5 480.8,84.5 466.8,98.5 463.3,95 480.8,77.4 498.4,95 	"/>
	<rect x="478.3" y="215.3" class="st1" width="5" height="57.6"/>
	<polygon class="st1" points="494.8,232.9 480.8,218.9 466.8,232.9 463.3,229.3 480.8,211.8 498.4,229.3 	"/>
	<polygon class="st1" points="494.8,252.1 480.8,238.1 466.8,252.1 463.3,248.5 480.8,231 498.4,248.5 	"/>
	<rect x="546.9" y="311.4" class="st1" width="5" height="57.6"/>
	<polygon class="st1" points="563.4,328.9 549.4,314.9 535.4,328.9 531.8,325.4 549.4,307.8 566.9,325.4 	"/>
	<polygon class="st1" points="563.4,348.1 549.4,334.1 535.4,348.1 531.8,344.6 549.4,327 566.9,344.6 	"/>
	<rect x="546.9" y="253.7" class="st1" width="5" height="57.6"/>
	<polygon class="st1" points="563.4,271.3 549.4,257.3 535.4,271.3 531.8,267.7 549.4,250.2 566.9,267.7 	"/>
	<polygon class="st1" points="563.4,290.5 549.4,276.5 535.4,290.5 531.8,287 549.4,269.4 566.9,287 	"/>
	<polygon class="st1" points="563.4,309.7 549.4,295.7 535.4,309.7 531.8,306.2 549.4,288.6 566.9,306.2 	"/>
	<rect x="546.9" y="196.1" class="st1" width="5" height="57.6"/>
	<polygon class="st1" points="563.4,213.7 549.4,199.6 535.4,213.7 531.8,210.1 549.4,192.6 566.9,210.1 	"/>
	<polygon class="st1" points="563.4,232.9 549.4,218.9 535.4,232.9 531.8,229.3 549.4,211.8 566.9,229.3 	"/>
	<polygon class="st1" points="563.4,252.1 549.4,238.1 535.4,252.1 531.8,248.5 549.4,231 566.9,248.5 	"/>
	<rect x="546.9" y="61.2" class="st1" width="5" height="57.6"/>
	<polygon class="st1" points="563.4,78.7 549.4,64.7 535.4,78.7 531.8,75.2 549.4,57.6 566.9,75.2 	"/>
	<polygon class="st1" points="563.4,97.9 549.4,83.9 535.4,97.9 531.8,94.4 549.4,76.8 566.9,94.4 	"/>
	<rect x="614.9" y="253.2" class="st1" width="5" height="57.6"/>
	<polygon class="st1" points="603.4,270.8 599.9,267.2 617.4,249.7 635,267.2 631.4,270.8 617.4,256.8 	"/>
	<polygon class="st1" points="603.4,290 599.9,286.5 617.4,268.9 635,286.5 631.4,290 617.4,276 	"/>
	<rect x="614.9" y="195.6" class="st1" width="5" height="57.6"/>
	<polygon class="st1" points="603.4,213.2 599.9,209.6 617.4,192.1 635,209.6 631.4,213.2 617.4,199.1 	"/>
	<polygon class="st1" points="603.4,232.4 599.9,228.8 617.4,211.3 635,228.8 631.4,232.4 617.4,218.4 	"/>
	<polygon class="st1" points="603.4,251.6 599.9,248 617.4,230.5 635,248 631.4,251.6 617.4,237.6 	"/>
	<rect x="614.9" y="138" class="st1" width="5" height="57.6"/>
	<polygon class="st1" points="603.4,155.5 599.9,152 617.4,134.5 635,152 631.4,155.5 617.4,141.5 	"/>
	<polygon class="st1" points="603.4,174.7 599.9,171.2 617.4,153.7 635,171.2 631.4,174.7 617.4,160.7 	"/>
	<polygon class="st1" points="603.4,194 599.9,190.4 617.4,172.9 635,190.4 631.4,194 617.4,179.9 	"/>
	<rect x="614.9" y="80.4" class="st1" width="5" height="57.6"/>
	<polygon class="st1" points="603.4,97.9 599.9,94.4 617.4,76.8 635,94.4 631.4,97.9 617.4,83.9 	"/>
	<polygon class="st1" points="603.4,117.1 599.9,113.6 617.4,96 635,113.6 631.4,117.1 617.4,103.1 	"/>
	<polygon class="st1" points="603.4,136.3 599.9,132.8 617.4,115.2 635,132.8 631.4,136.3 617.4,122.3 	"/>
	<rect x="614.9" y="22.7" class="st1" width="5" height="57.6"/>
	<polygon class="st1" points="603.4,40.3 599.9,36.8 617.4,19.2 635,36.8 631.4,40.3 617.4,26.3 	"/>
	<polygon class="st1" points="603.4,59.5 599.9,56 617.4,38.4 635,56 631.4,59.5 617.4,45.5 	"/>
	<polygon class="st1" points="603.4,78.7 599.9,75.2 617.4,57.6 635,75.2 631.4,78.7 617.4,64.7 	"/>
	<rect x="566.2" y="145.1" class="st1" width="17.1" height="5"/>
	<path class="st1" d="M1197.7,361.3v-5c33.8,0,66.4-27.9,66.7-28.2l1-0.9l37.3,9.9l-1.3,4.8l-34.7-9.3
		C1260.6,337.7,1230.3,361.3,1197.7,361.3z"/>
	<rect x="1129.6" y="356.3" class="st1" width="34.2" height="5"/>
	<rect x="751.8" y="330.1" class="st1" width="5" height="57.6"/>
	<polygon class="st1" points="768.3,347.6 754.3,333.6 740.3,347.6 736.7,344.1 754.3,326.5 771.8,344.1 	"/>
	<polygon class="st1" points="768.3,366.8 754.3,352.8 740.3,366.8 736.7,363.3 754.3,345.7 771.8,363.3 	"/>
	<rect x="751.8" y="272.4" class="st1" width="5" height="57.6"/>
	<polygon class="st1" points="768.3,290 754.3,276 740.3,290 736.7,286.5 754.3,268.9 771.8,286.5 	"/>
	<polygon class="st1" points="768.3,309.2 754.3,295.2 740.3,309.2 736.7,305.7 754.3,288.1 771.8,305.7 	"/>
	<polygon class="st1" points="768.3,328.4 754.3,314.4 740.3,328.4 736.7,324.9 754.3,307.3 771.8,324.9 	"/>
	<rect x="751.8" y="214.8" class="st1" width="5" height="57.6"/>
	<polygon class="st1" points="768.3,232.4 754.3,218.4 740.3,232.4 736.7,228.8 754.3,211.3 771.8,228.8 	"/>
	<polygon class="st1" points="768.3,251.6 754.3,237.6 740.3,251.6 736.7,248 754.3,230.5 771.8,248 	"/>
	<polygon class="st1" points="768.3,270.8 754.3,256.8 740.3,270.8 736.7,267.2 754.3,249.7 771.8,267.2 	"/>
	<rect x="751.8" y="157.2" class="st1" width="5" height="57.6"/>
	<polygon class="st1" points="768.3,174.7 754.3,160.7 740.3,174.7 736.7,171.2 754.3,153.7 771.8,171.2 	"/>
	<polygon class="st1" points="768.3,194 754.3,179.9 740.3,194 736.7,190.4 754.3,172.9 771.8,190.4 	"/>
	<polygon class="st1" points="768.3,213.2 754.3,199.1 740.3,213.2 736.7,209.6 754.3,192.1 771.8,209.6 	"/>
	<rect x="751.8" y="99.6" class="st1" width="5" height="57.6"/>
	<polygon class="st1" points="768.3,117.1 754.3,103.1 740.3,117.1 736.7,113.6 754.3,96 771.8,113.6 	"/>
	<polygon class="st1" points="768.3,136.3 754.3,122.3 740.3,136.3 736.7,132.8 754.3,115.2 771.8,132.8 	"/>
	<polygon class="st1" points="768.3,155.5 754.3,141.5 740.3,155.5 736.7,152 754.3,134.5 771.8,152 	"/>
	<rect x="751.8" y="42" class="st1" width="5" height="57.6"/>
	<polygon class="st1" points="768.3,59.5 754.3,45.5 740.3,59.5 736.7,56 754.3,38.4 771.8,56 	"/>
	<polygon class="st1" points="768.3,78.7 754.3,64.7 740.3,78.7 736.7,75.2 754.3,57.6 771.8,75.2 	"/>
	<polygon class="st1" points="768.3,97.9 754.3,83.9 740.3,97.9 736.7,94.4 754.3,76.8 771.8,94.4 	"/>
	<rect x="1161.5" y="22.7" class="st1" width="5" height="57.6"/>
	<polygon class="st1" points="1178,40.3 1164,26.3 1150,40.3 1146.5,36.8 1164,19.2 1181.6,36.8 	"/>
	<polygon class="st1" points="1178,59.5 1164,45.5 1150,59.5 1146.5,56 1164,38.4 1181.6,56 	"/>
	<rect x="1093.2" y="176.3" class="st1" width="5" height="57.6"/>
	<polygon class="st1" points="1109.7,193.9 1095.7,179.9 1081.7,193.9 1078.1,190.3 1095.7,172.8 1113.2,190.3 	"/>
	<polygon class="st1" points="1109.7,213.1 1095.7,199.1 1081.7,213.1 1078.1,209.5 1095.7,192 1113.2,209.5 	"/>
	<rect x="1093.2" y="118.7" class="st1" width="5" height="57.6"/>
	<polygon class="st1" points="1109.7,136.3 1095.7,122.2 1081.7,136.3 1078.1,132.7 1095.7,115.2 1113.2,132.7 	"/>
	<polygon class="st1" points="1109.7,155.5 1095.7,141.5 1081.7,155.5 1078.1,151.9 1095.7,134.4 1113.2,151.9 	"/>
	<polygon class="st1" points="1109.7,174.7 1095.7,160.7 1081.7,174.7 1078.1,171.1 1095.7,153.6 1113.2,171.1 	"/>
	<rect x="1093.2" y="61.1" class="st1" width="5" height="57.6"/>
	<polygon class="st1" points="1109.7,78.6 1095.7,64.6 1081.7,78.6 1078.1,75.1 1095.7,57.5 1113.2,75.1 	"/>
	<polygon class="st1" points="1109.7,97.8 1095.7,83.8 1081.7,97.8 1078.1,94.3 1095.7,76.8 1113.2,94.3 	"/>
	<polygon class="st1" points="1109.7,117 1095.7,103 1081.7,117 1078.1,113.5 1095.7,96 1113.2,113.5 	"/>
	<rect x="1093.7" y="330.4" class="st1" width="5" height="57.6"/>
	<polygon class="st1" points="1110.2,347.9 1096.2,333.9 1082.2,347.9 1078.6,344.4 1096.2,326.9 1113.7,344.4 	"/>
	<polygon class="st1" points="1110.2,367.1 1096.2,353.1 1082.2,367.1 1078.6,363.6 1096.2,346.1 1113.7,363.6 	"/>
	<rect x="1093.7" y="272.8" class="st1" width="5" height="57.6"/>
	<polygon class="st1" points="1110.2,290.3 1096.2,276.3 1082.2,290.3 1078.6,286.8 1096.2,269.2 1113.7,286.8 	"/>
	<polygon class="st1" points="1110.2,309.5 1096.2,295.5 1082.2,309.5 1078.6,306 1096.2,288.4 1113.7,306 	"/>
	<polygon class="st1" points="1110.2,328.7 1096.2,314.7 1082.2,328.7 1078.6,325.2 1096.2,307.6 1113.7,325.2 	"/>
	<rect x="888.6" y="41.6" class="st1" width="5" height="57.6"/>
	<polygon class="st1" points="877.1,59.2 873.5,55.6 891.1,38.1 908.6,55.6 905.1,59.2 891.1,45.2 	"/>
	<polygon class="st1" points="877.1,78.4 873.5,74.9 891.1,57.3 908.6,74.9 905.1,78.4 891.1,64.4 	"/>
	<rect x="1025.1" y="61.2" class="st1" width="5" height="57.6"/>
	<polygon class="st1" points="1041.6,78.7 1027.6,64.7 1013.5,78.7 1010,75.2 1027.6,57.6 1045.1,75.2 	"/>
	<polygon class="st1" points="1041.6,97.9 1027.6,83.9 1013.5,97.9 1010,94.4 1027.6,76.8 1045.1,94.4 	"/>
	<rect x="1025.1" y="3.5" class="st1" width="5" height="57.6"/>
	<polygon class="st1" points="1041.6,21.1 1027.6,7.1 1013.5,21.1 1010,17.5 1027.6,0 1045.1,17.5 	"/>
	<polygon class="st1" points="1041.6,40.3 1027.6,26.3 1013.5,40.3 1010,36.8 1027.6,19.2 1045.1,36.8 	"/>
	<polygon class="st1" points="1041.6,59.5 1027.6,45.5 1013.5,59.5 1010,56 1027.6,38.4 1045.1,56 	"/>
	<rect x="1229.4" y="291.9" class="st1" width="5" height="57.6"/>
	<polygon class="st1" points="1245.9,309.5 1231.9,295.5 1217.9,309.5 1214.4,306 1231.9,288.4 1249.5,306 	"/>
	<polygon class="st1" points="1245.9,328.7 1231.9,314.7 1217.9,328.7 1214.4,325.2 1231.9,307.6 1249.5,325.2 	"/>
	<rect x="1229.4" y="234.3" class="st1" width="5" height="57.6"/>
	<polygon class="st1" points="1245.9,251.9 1231.9,237.9 1217.9,251.9 1214.4,248.3 1231.9,230.8 1249.5,248.3 	"/>
	<polygon class="st1" points="1245.9,271.1 1231.9,257.1 1217.9,271.1 1214.4,267.5 1231.9,250 1249.5,267.5 	"/>
	<polygon class="st1" points="1245.9,290.3 1231.9,276.3 1217.9,290.3 1214.4,286.7 1231.9,269.2 1249.5,286.7 	"/>
	<rect x="1229.4" y="176.7" class="st1" width="5" height="57.6"/>
	<polygon class="st1" points="1245.9,194.2 1231.9,180.2 1217.9,194.2 1214.4,190.7 1231.9,173.2 1249.5,190.7 	"/>
	<polygon class="st1" points="1245.9,213.5 1231.9,199.4 1217.9,213.5 1214.4,209.9 1231.9,192.4 1249.5,209.9 	"/>
	<polygon class="st1" points="1245.9,232.7 1231.9,218.6 1217.9,232.7 1214.4,229.1 1231.9,211.6 1249.5,229.1 	"/>
	<rect x="1229.4" y="119.1" class="st1" width="5" height="57.6"/>
	<polygon class="st1" points="1245.9,136.6 1231.9,122.6 1217.9,136.6 1214.4,133.1 1231.9,115.5 1249.5,133.1 	"/>
	<polygon class="st1" points="1245.9,155.8 1231.9,141.8 1217.9,155.8 1214.4,152.3 1231.9,134.7 1249.5,152.3 	"/>
	<polygon class="st1" points="1245.9,175 1231.9,161 1217.9,175 1214.4,171.5 1231.9,154 1249.5,171.5 	"/>
	<rect x="1229.4" y="61.5" class="st1" width="5" height="57.6"/>
	<polygon class="st1" points="1245.9,79 1231.9,65 1217.9,79 1214.4,75.5 1231.9,57.9 1249.5,75.5 	"/>
	<polygon class="st1" points="1245.9,98.2 1231.9,84.2 1217.9,98.2 1214.4,94.7 1231.9,77.1 1249.5,94.7 	"/>
	<polygon class="st1" points="1245.9,117.4 1231.9,103.4 1217.9,117.4 1214.4,113.9 1231.9,96.3 1249.5,113.9 	"/>
	<rect x="1161.5" y="234.5" class="st1" width="5" height="57.6"/>
	<polygon class="st1" points="1178,252.1 1164,238.1 1150,252.1 1146.5,248.5 1164,231 1181.6,248.5 	"/>
	<polygon class="st1" points="1178,271.3 1164,257.3 1150,271.3 1146.5,267.7 1164,250.2 1181.6,267.7 	"/>
	<rect x="1297.5" y="214.9" class="st1" width="5" height="57.6"/>
	<polygon class="st1" points="1286,232.4 1282.5,228.9 1300,211.3 1317.6,228.9 1314,232.4 1300,218.4 	"/>
	<polygon class="st1" points="1286,251.6 1282.5,248.1 1300,230.5 1317.6,248.1 1314,251.6 1300,237.6 	"/>
	<rect x="1297.5" y="157.2" class="st1" width="5" height="57.6"/>
	<polygon class="st1" points="1286,174.8 1282.5,171.2 1300,153.7 1317.6,171.2 1314,174.8 1300,160.8 	"/>
	<polygon class="st1" points="1286,194 1282.5,190.4 1300,172.9 1317.6,190.4 1314,194 1300,180 	"/>
	<polygon class="st1" points="1286,213.2 1282.5,209.7 1300,192.1 1317.6,209.7 1314,213.2 1300,199.2 	"/>
	<rect x="1297.5" y="99.6" class="st1" width="5" height="57.6"/>
	<polygon class="st1" points="1286,117.2 1282.5,113.6 1300,96.1 1317.6,113.6 1314,117.2 1300,103.1 	"/>
	<polygon class="st1" points="1286,136.4 1282.5,132.8 1300,115.3 1317.6,132.8 1314,136.4 1300,122.3 	"/>
	<polygon class="st1" points="1286,155.6 1282.5,152 1300,134.5 1317.6,152 1314,155.6 1300,141.6 	"/>
	<rect x="1297.5" y="42" class="st1" width="5" height="57.6"/>
	<polygon class="st1" points="1286,59.5 1282.5,56 1300,38.4 1317.6,56 1314,59.5 1300,45.5 	"/>
	<polygon class="st1" points="1286,78.7 1282.5,75.2 1300,57.7 1317.6,75.2 1314,78.7 1300,64.7 	"/>
	<polygon class="st1" points="1286,97.9 1282.5,94.4 1300,76.9 1317.6,94.4 1314,97.9 1300,83.9 	"/>
	<path class="st1" d="M930,380.5l-2.7-4.2c1.3-0.8,32.2-19.7,100.5-19.7v5C961.2,361.6,930.4,380.4,930,380.5z"/>
	<rect x="1044.5" y="356.3" class="st1" width="17.1" height="5"/>
	<rect x="888.6" y="291.6" class="st1" width="5" height="57.6"/>
	<polygon class="st1" points="877.1,309.2 873.5,305.7 891.1,288.1 908.6,305.7 905.1,309.2 891.1,295.2 	"/>
	<polygon class="st1" points="877.1,328.4 873.5,324.9 891.1,307.3 908.6,324.9 905.1,328.4 891.1,314.4 	"/>
	<rect x="888.6" y="234" class="st1" width="5" height="57.6"/>
	<polygon class="st1" points="877.1,251.6 873.5,248 891.1,230.5 908.6,248 905.1,251.6 891.1,237.6 	"/>
	<polygon class="st1" points="877.1,270.8 873.5,267.2 891.1,249.7 908.6,267.2 905.1,270.8 891.1,256.8 	"/>
	<polygon class="st1" points="877.1,290 873.5,286.5 891.1,268.9 908.6,286.5 905.1,290 891.1,276 	"/>
	<rect x="1025.1" y="253.2" class="st1" width="5" height="57.6"/>
	<polygon class="st1" points="1041.6,270.8 1027.6,256.8 1013.5,270.8 1010,267.2 1027.6,249.7 1045.1,267.2 	"/>
	<polygon class="st1" points="1041.6,290 1027.6,276 1013.5,290 1010,286.5 1027.6,268.9 1045.1,286.5 	"/>
	<rect x="820" y="176.6" class="st1" width="5" height="57.6"/>
	<polygon class="st1" points="836.5,194.2 822.5,180.1 808.5,194.2 805,190.6 822.5,173.1 840.1,190.6 	"/>
	<polygon class="st1" points="836.5,213.4 822.5,199.3 808.5,213.4 805,209.8 822.5,192.3 840.1,209.8 	"/>
	<rect x="820" y="119" class="st1" width="5" height="57.6"/>
	<polygon class="st1" points="836.5,136.5 822.5,122.5 808.5,136.5 805,133 822.5,115.4 840.1,133 	"/>
	<polygon class="st1" points="836.5,155.7 822.5,141.7 808.5,155.7 805,152.2 822.5,134.7 840.1,152.2 	"/>
	<polygon class="st1" points="836.5,174.9 822.5,160.9 808.5,174.9 805,171.4 822.5,153.9 840.1,171.4 	"/>
	<rect x="820" y="61.4" class="st1" width="5" height="57.6"/>
	<polygon class="st1" points="836.5,78.9 822.5,64.9 808.5,78.9 805,75.4 822.5,57.8 840.1,75.4 	"/>
	<polygon class="st1" points="836.5,98.1 822.5,84.1 808.5,98.1 805,94.6 822.5,77 840.1,94.6 	"/>
	<polygon class="st1" points="836.5,117.3 822.5,103.3 808.5,117.3 805,113.8 822.5,96.2 840.1,113.8 	"/>
	<rect x="820.5" y="310.9" class="st1" width="5" height="57.6"/>
	<polygon class="st1" points="837,328.4 823,314.4 809,328.4 805.5,324.9 823,307.3 840.6,324.9 	"/>
	<polygon class="st1" points="837,347.6 823,333.6 809,347.6 805.5,344.1 823,326.5 840.6,344.1 	"/>
	<rect x="956.3" y="310.7" class="st1" width="5" height="57.6"/>
	<polygon class="st1" points="972.8,328.3 958.8,314.3 944.7,328.3 941.2,324.7 958.8,307.2 976.3,324.7 	"/>
	<polygon class="st1" points="972.8,347.5 958.8,333.5 944.7,347.5 941.2,343.9 958.8,326.4 976.3,343.9 	"/>
	<rect x="956.3" y="253.1" class="st1" width="5" height="57.6"/>
	<polygon class="st1" points="972.8,270.7 958.8,256.6 944.7,270.7 941.2,267.1 958.8,249.6 976.3,267.1 	"/>
	<polygon class="st1" points="972.8,289.9 958.8,275.8 944.7,289.9 941.2,286.3 958.8,268.8 976.3,286.3 	"/>
	<polygon class="st1" points="972.8,309.1 958.8,295.1 944.7,309.1 941.2,305.5 958.8,288 976.3,305.5 	"/>
	<rect x="956.3" y="195.5" class="st1" width="5" height="57.6"/>
	<polygon class="st1" points="972.8,213 958.8,199 944.7,213 941.2,209.5 958.8,191.9 976.3,209.5 	"/>
	<polygon class="st1" points="972.8,232.2 958.8,218.2 944.7,232.2 941.2,228.7 958.8,211.2 976.3,228.7 	"/>
	<polygon class="st1" points="972.8,251.4 958.8,237.4 944.7,251.4 941.2,247.9 958.8,230.4 976.3,247.9 	"/>
	<rect x="956.3" y="137.9" class="st1" width="5" height="57.6"/>
	<polygon class="st1" points="972.8,155.4 958.8,141.4 944.7,155.4 941.2,151.9 958.8,134.3 976.3,151.9 	"/>
	<polygon class="st1" points="972.8,174.6 958.8,160.6 944.7,174.6 941.2,171.1 958.8,153.5 976.3,171.1 	"/>
	<polygon class="st1" points="972.8,193.8 958.8,179.8 944.7,193.8 941.2,190.3 958.8,172.7 976.3,190.3 	"/>
	<rect x="956.3" y="80.2" class="st1" width="5" height="57.6"/>
	<polygon class="st1" points="972.8,97.8 958.8,83.8 944.7,97.8 941.2,94.3 958.8,76.7 976.3,94.3 	"/>
	<polygon class="st1" points="972.8,117 958.8,103 944.7,117 941.2,113.5 958.8,95.9 976.3,113.5 	"/>
	<polygon class="st1" points="972.8,136.2 958.8,122.2 944.7,136.2 941.2,132.7 958.8,115.1 976.3,132.7 	"/>
	<rect x="683.4" y="292" class="st1" width="5" height="57.6"/>
	<polygon class="st1" points="699.9,309.5 685.9,295.5 671.8,309.5 668.3,306 685.9,288.4 703.4,306 	"/>
	<polygon class="st1" points="699.9,328.7 685.9,314.7 671.8,328.7 668.3,325.2 685.9,307.6 703.4,325.2 	"/>
	<rect x="683.4" y="234.3" class="st1" width="5" height="57.6"/>
	<polygon class="st1" points="699.9,251.9 685.9,237.9 671.8,251.9 668.3,248.4 685.9,230.8 703.4,248.4 	"/>
	<polygon class="st1" points="699.9,271.1 685.9,257.1 671.8,271.1 668.3,267.6 685.9,250 703.4,267.6 	"/>
	<polygon class="st1" points="699.9,290.3 685.9,276.3 671.8,290.3 668.3,286.8 685.9,269.2 703.4,286.8 	"/>
	<rect x="683.2" y="100.2" class="st1" width="5" height="57.6"/>
	<polygon class="st1" points="699.8,117.7 685.7,103.7 671.7,117.7 668.2,114.2 685.7,96.6 703.3,114.2 	"/>
	<polygon class="st1" points="699.8,136.9 685.7,122.9 671.7,136.9 668.2,133.4 685.7,115.8 703.3,133.4 	"/>
</g>
</svg>
